{
.appVersion = "3108";
.formatVersion = 3;
date = "2022-01-30 04:32:21 +0000";
familyName = Thavnair;
fontMaster = (
{
id = m01;
metricValues = (
{
over = 16;
pos = 800;
},
{
over = 16;
pos = 700;
},
{
over = 16;
pos = 500;
},
{
over = -16;
},
{
over = -16;
pos = -200;
}
);
name = Regular;
}
);
glyphs = (
{
glyphname = A;
lastChange = "2022-02-01 18:07:08 +0000";
layers = (
{
layerId = m01;
shapes = (
{
attr = {
fillColor = (0,255);
};
closed = 1;
nodes = (
(280,650,o),
(235,600,o),
(205,503,c),
(189,450,o),
(180,375,o),
(205,375,c),
(230,375,o),
(305,425,o),
(305,450,c),
(305,475,o),
(255,450,o),
(255,475,c),
(255,480,o),
(272,500,o),
(305,500,c),
(404,502,o),
(405,500,o),
(455,500,c),
(482,500,o),
(505,500,o),
(505,450,c),
(505,422,o),
(452,300,o),
(452,300,c),
(452,300,o),
(305,300,o),
(255,300,c),
(155,300,o),
(5,100,o),
(5,50,c),
(5,25,o),
(30,0,o),
(55,0,c),
(107,0,o),
(305,0,o),
(355,0,c),
(380,0,o),
(408,44,o),
(433,100,c),
(463,164,o),
(553,375,o),
(607,497,c),
(652,598,o),
(681,551,o),
(692,573,c),
(706,599,o),
(705,650,o),
(680,650,c),
(580,650,o),
(405,650,o),
(305,650,c)
);
},
{
attr = {
fillColor = (0,255);
};
closed = 1;
nodes = (
(295,100,o),
(210,100,o),
(185,100,c),
(160,100,o),
(130,100,o),
(130,125,c),
(130,150,o),
(205,250,o),
(305,250,c),
(330,250,o),
(435,250,o),
(435,250,c),
(435,250,o),
(370,100,o),
(345,100,c)
);
},
{
attr = {
fillColor = (0,255);
};
closed = 1;
nodes = (
(354,800,o),
(305,750,o),
(305,725,c),
(305,700,o),
(305,700,o),
(355,700,c),
(482,700,o),
(603,700,o),
(705,700,c),
(730,700,o),
(805,800,o),
(730,800,c),
(630,800,o),
(498,800,o),
(405,800,c)
);
}
);
width = 587;
}
);
unicode = 65;
},
{
glyphname = D;
lastChange = "2022-02-01 18:07:17 +0000";
layers = (
{
layerId = m01;
shapes = (
{
attr = {
fillColor = (0,255);
};
closed = 1;
nodes = (
(580,800,o),
(535,750,o),
(535,725,c),
(535,700,o),
(580,700,o),
(605,700,c),
(655,700,o),
(665,700,o),
(705,700,c),
(745,700,o),
(805,800,o),
(755,800,c),
(705,800,o),
(643,800,o),
(605,800,c)
);
},
{
attr = {
fillColor = (0,255);
};
closed = 1;
nodes = (
(514,650,o),
(486,645,o),
(442,543,c),
(423,501,o),
(440,500,o),
(475,500,c),
(510,500,o),
(525,500,o),
(575,500,c),
(600,500,o),
(605,500,o),
(605,450,c),
(605,415,o),
(555,300,o),
(555,300,c),
(555,300,o),
(305,300,o),
(255,300,c),
(155,300,o),
(5,100,o),
(5,50,c),
(5,25,o),
(30,0,o),
(55,0,c),
(105,0,o),
(405,0,o),
(455,0,c),
(505,0,o),
(537,43,o),
(563,100,c),
(592,164,o),
(726,541,o),
(733,562,c),
(743,591,o),
(745,650,o),
(705,650,c),
(655,650,o),
(589,650,o),
(539,650,c)
);
},
{
attr = {
fillColor = (0,255);
};
closed = 1;
nodes = (
(405,100,o),
(205,100,o),
(180,100,c),
(155,100,o),
(130,100,o),
(130,125,c),
(130,150,o),
(205,250,o),
(305,250,c),
(330,250,o),
(539,250,o),
(539,250,c),
(539,250,o),
(490,100,o),
(455,100,c)
);
}
);
width = 599;
}
);
unicode = 68;
},
{
glyphname = E;
lastChange = "2022-02-01 18:07:25 +0000";
layers = (
{
layerId = m01;
shapes = (
{
attr = {
fillColor = (0,255);
};
closed = 1;
nodes = (
(330,800,o),
(305,750,o),
(305,725,c),
(305,700,o),
(305,700,o),
(355,700,c),
(480,700,o),
(553,700,o),
(655,700,c),
(680,700,o),
(755,800,o),
(680,800,c),
(580,800,o),
(473,801,o),
(380,800,c)
);
},
{
attr = {
fillColor = (0,255);
};
closed = 1;
nodes = (
(255,650,o),
(205,550,o),
(205,500,c),
(205,475,o),
(220,425,o),
(245,425,c),
(295,425,o),
(290,499,o),
(345,500,c),
(441,500,o),
(555,500,o),
(555,500,c),
(555,500,o),
(520,428,o),
(504,402,c),
(491,380,o),
(455,350,o),
(455,350,c),
(455,350,o),
(305,350,o),
(205,350,c),
(180,350,o),
(105,250,o),
(155,250,c),
(201,250,o),
(395,250,o),
(395,250,c),
(395,250,o),
(357,198,o),
(308,165,c),
(277,145,o),
(105,150,o),
(55,150,c),
(30,150,o),
(6,74,o),
(5,50,c),
(5,25,o),
(30,0,o),
(55,0,c),
(105,0,o),
(205,0,o),
(255,0,c),
(280,0,o),
(353,52,o),
(375,77,c),
(451,157,o),
(543,293,o),
(658,476,c),
(683,515,o),
(705,576,o),
(705,601,c),
(705,626,o),
(706,650,o),
(670,650,c),
(570,650,o),
(456,653,o),
(305,650,c)
);
}
);
width = 537;
}
);
unicode = 69;
},
{
glyphname = F;
lastChange = "2022-02-03 12:41:31 +0000";
layers = (
{
layerId = m01;
shapes = (
{
attr = {
fillColor = (0,255);
};
closed = 1;
nodes = (
(505,800,o),
(455,750,o),
(455,725,c),
(455,700,o),
(505,700,o),
(505,700,c),
(505,700,o),
(705,700,o),
(755,700,c),
(780,700,o),
(805,750,o),
(805,775,c),
(805,800,o),
(777,799,o),
(777,799,c),
(505,800,l)
);
},
{
attr = {
fillColor = (0,255);
};
closed = 1;
nodes = (
(280,650,o),
(238,627,o),
(224,599,c),
(177,500,o),
(113,198,o),
(60,100,c),
(48,77,o),
(5,75,o),
(5,50,c),
(5,25,o),
(30,0,o),
(55,0,c),
(80,0,o),
(143,42,o),
(156,99,c),
(187,225,o),
(259,405,o),
(288,478,c),
(296,497,o),
(297,500,o),
(305,500,c),
(339,502,o),
(405,500,o),
(405,500,c),
(405,500,o),
(455,350,o),
(480,350,c),
(505,350,o),
(552,499,o),
(552,499,c),
(552,499,o),
(610,499,o),
(655,500,c),
(680,500,o),
(704,556,o),
(705,600,c),
(705,650,o),
(655,650,o),
(655,650,c),
(655,650,o),
(405,650,o),
(305,650,c)
);
}
);
width = 630;
}
);
unicode = 70;
},
{
glyphname = H;
lastChange = "2022-02-01 18:07:39 +0000";
layers = (
{
layerId = m01;
shapes = (
{
attr = {
fillColor = (0,255);
};
closed = 1;
nodes = (
(355,800,o),
(305,758,o),
(305,725,c),
(305,700,o),
(349,700,o),
(375,700,c),
(425,700,o),
(425,700,o),
(475,700,c),
(525,700,o),
(580,800,o),
(530,800,c),
(480,800,o),
(430,800,o),
(380,800,c)
);
},
{
attr = {
fillColor = (0,255);
};
closed = 1;
nodes = (
(580,650,o),
(505,550,o),
(505,525,c),
(505,500,o),
(505,500,o),
(530,500,c),
(554,500,o),
(565,500,o),
(605,500,c),
(630,500,o),
(672,577,o),
(684,602,c),
(691,617,o),
(700,650,o),
(675,650,c),
(659,650,o),
(650,650,o),
(605,650,c)
);
},
{
attr = {
fillColor = (0,255);
};
closed = 1;
nodes = (
(280,650,o),
(226,547,o),
(226,522,c),
(226,522,o),
(212,409,o),
(175,310,c),
(99,108,o),
(5,50,o),
(5,25,c),
(5,0,o),
(15,0,o),
(30,0,c),
(45,0,o),
(99,55,o),
(145,111,c),
(198,175,o),
(236,299,o),
(307,300,c),
(405,302,o),
(503,297,o),
(465,245,c),
(433,201,o),
(342,114,o),
(330,100,c),
(303,70,o),
(230,100,o),
(205,70,c),
(165,20,o),
(145,0,o),
(165,0,c),
(203,0,o),
(305,0,o),
(355,0,c),
(405,0,o),
(480,62,o),
(480,100,c),
(480,129,o),
(433,126,o),
(433,134,c),
(435,198,o),
(580,248,o),
(580,330,c),
(579,397,o),
(268,353,o),
(268,353,c),
(268,353,o),
(315,500,o),
(340,500,c),
(365,500,o),
(365,500,o),
(405,500,c),
(436,500,o),
(484,575,o),
(495,600,c),
(502,615,o),
(510,650,o),
(485,650,c),
(460,650,o),
(355,650,o),
(305,650,c)
);
}
);
width = 517;
}
);
unicode = 72;
},
{
glyphname = I;
lastChange = "2022-02-03 12:47:14 +0000";
layers = (
{
layerId = m01;
shapes = (
{
attr = {
fillColor = (0,255);
};
closed = 1;
nodes = (
(255,650,o),
(230,575,o),
(230,550,c),
(230,525,o),
(245,475,o),
(255,475,c),
(265,475,o),
(264,519,o),
(278,491,c),
(304,436,o),
(160,201,o),
(122,132,c),
(106,102,o),
(5,100,o),
(5,75,c),
(5,50,o),
(5,0,o),
(30,0,c),
(80,0,o),
(155,0,o),
(205,0,c),
(255,0,o),
(305,75,o),
(305,100,c),
(305,125,o),
(189,101,o),
(203,133,c),
(247,224,o),
(324,402,o),
(359,479,c),
(368,501,o),
(380,500,o),
(380,500,c),
(380,500,o),
(505,500,o),
(580,500,c),
(605,500,o),
(655,600,o),
(655,625,c),
(655,650,o),
(637,650,o),
(637,650,c),
(637,650,o),
(405,652,o),
(305,650,c)
);
},
{
attr = {
fillColor = (0,255);
};
closed = 1;
nodes = (
(330,800,o),
(305,750,o),
(305,725,c),
(305,700,o),
(330,700,o),
(330,700,c),
(330,700,o),
(405,700,o),
(455,700,c),
(480,700,o),
(505,750,o),
(505,775,c),
(505,800,o),
(480,800,o),
(480,800,c),
(480,800,o),
(405,800,o),
(355,800,c)
);
}
);
width = 480;
}
);
unicode = 73;
},
{
glyphname = L;
lastChange = "2022-02-01 18:07:47 +0000";
layers = (
{
layerId = m01;
shapes = (
{
attr = {
fillColor = (0,255);
};
closed = 1;
nodes = (
(355,800,o),
(326,742,o),
(305,700,c),
(211,502,o),
(4,52,o),
(5,25,c),
(5,0,o),
(5,0,o),
(55,0,c),
(80,0,o),
(105,100,o),
(155,100,c),
(305,100,o),
(305,0,o),
(330,0,c),
(355,0,o),
(405,50,o),
(405,100,c),
(405,150,o),
(355,200,o),
(255,200,c),
(207,200,o),
(155,200,o),
(155,200,c),
(305,500,l),
(305,500,o),
(455,500,o),
(555,500,c),
(605,500,o),
(655,550,o),
(655,600,c),
(655,625,o),
(655,650,o),
(605,650,c),
(506,650,o),
(355,647,o),
(355,647,c),
(355,647,o),
(380,700,o),
(405,700,c),
(455,700,o),
(555,700,o),
(605,700,c),
(655,700,o),
(705,750,o),
(705,775,c),
(705,800,o),
(705,800,o),
(680,800,c),
(599,800,o),
(505,800,o),
(405,800,c)
);
},
{
attr = {
fillColor = (0,255);
};
closed = 1;
nodes = (
(380,350,o),
(255,250,o),
(405,250,c),
(452,250,o),
(480,275,o),
(480,300,c),
(480,350,o),
(480,350,o),
(405,350,c)
);
}
);
width = 530;
}
);
unicode = 76;
},
{
glyphname = M;
lastChange = "2022-02-01 16:54:37 +0000";
layers = (
{
layerId = m01;
shapes = (
{
attr = {
fillColor = (0,255);
};
closed = 1;
nodes = (
(355,800,o),
(304,799,o),
(273,750,c),
(243,703,o),
(295,700,o),
(295,700,c),
(295,700,o),
(905,700,o),
(1005,700,c),
(1055,700,o),
(1105,800,o),
(1055,800,c),
(1005,800,o),
(355,800,o),
(355,800,c)
);
},
{
attr = {
fillColor = (0,255);
};
closed = 1;
nodes = (
(199,598,o),
(122,391,o),
(70,244,c),
(55,201,o),
(5,125,o),
(5,100,c),
(5,50,o),
(55,0,o),
(105,0,c),
(305,0,o),
(463,168,o),
(463,168,c),
(463,168,o),
(505,0,o),
(605,0,c),
(755,0,o),
(805,80,o),
(805,80,c),
(805,80,o),
(930,0,o),
(1005,0,c),
(1080,0,o),
(1205,250,o),
(1205,250,c),
(1205,250,o),
(1055,100,o),
(1030,100,c),
(980,100,o),
(880,200,o),
(855,300,c),
(830,400,o),
(839,444,o),
(830,475,c),
(823,500,o),
(892,486,o),
(905,500,c),
(935,530,o),
(957,565,o),
(969,590,c),
(995,640,o),
(930,650,o),
(905,650,c),
(815,650,o),
(305,650,o),
(236,649,c),
(222,649,o),
(208,623,o),
(206,618,c)
);
},
{
attr = {
fillColor = (0,255);
};
closed = 1;
nodes = (
(630,500,o),
(671,500,o),
(705,500,c),
(805,500,o),
(803,116,o),
(803,116,c),
(803,116,o),
(775,100,o),
(754,100,c),
(707,100,o),
(615,143,o),
(590,198,c),
(546,299,o),
(555,500,o),
(605,500,c)
);
},
{
attr = {
fillColor = (0,255);
};
closed = 1;
nodes = (
(455,500,o),
(454,440,o),
(455,400,c),
(447,350,o),
(456,199,o),
(456,199,c),
(456,199,o),
(305,100,o),
(255,100,c),
(205,100,o),
(155,100,o),
(155,150,c),
(155,196,o),
(230,500,o),
(280,500,c),
(330,500,o),
(355,500,o),
(405,500,c)
);
}
);
width = 1105;
}
);
unicode = 77;
},
{
glyphname = N;
lastChange = "2022-02-03 14:38:29 +0000";
layers = (
{
layerId = m01;
shapes = (
{
attr = {
fillColor = (0,255);
};
closed = 1;
nodes = (
(355,800,o),
(305,800,o),
(305,750,c),
(305,700,o),
(355,700,o),
(355,700,c),
(355,700,o),
(705,700,o),
(805,700,c),
(855,700,o),
(905,800,o),
(855,800,c),
(805,800,o),
(355,800,o),
(355,800,c)
);
},
{
attr = {
fillColor = (0,255);
};
closed = 1;
nodes = (
(30,200,o),
(5,150,o),
(5,125,c),
(5,100,o),
(55,100,o),
(55,100,c),
(305,100,l),
(305,100,o),
(355,100,o),
(355,125,c),
(355,150,o),
(330,200,o),
(305,200,c),
(277,199,o),
(278,200,o),
(278,200,c),
(407,500,l),
(407,500,o),
(509,503,o),
(604,416,c),
(667,358,o),
(500,263,o),
(474,200,c),
(448,135,o),
(455,0,o),
(505,0,c),
(705,0,o),
(705,100,o),
(705,100,c),
(705,100,o),
(555,50,o),
(555,150,c),
(557,248,o),
(753,325,o),
(788,378,c),
(803,400,o),
(755,425,o),
(755,450,c),
(755,500,o),
(855,475,o),
(855,500,c),
(855,550,o),
(905,550,o),
(905,600,c),
(905,650,o),
(877,646,o),
(877,646,c),
(877,646,o),
(430,650,o),
(330,650,c),
(305,650,o),
(255,575,o),
(255,550,c),
(255,525,o),
(280,500,o),
(305,500,c),
(338,500,o),
(338,500,o),
(338,500,c),
(205,200,l),
(205,200,o),
(105,200,o),
(55,200,c)
);
}
);
width = 730;
}
);
unicode = 78;
},
{
glyphname = O;
lastChange = "2022-02-01 18:07:56 +0000";
layers = (
{
layerId = m01;
shapes = (
{
attr = {
fillColor = (0,255);
};
closed = 1;
nodes = (
(580,800,o),
(530,750,o),
(530,725,c),
(530,700,o),
(582,701,o),
(605,700,c),
(655,700,o),
(655,700,o),
(705,700,c),
(746,701,o),
(805,800,o),
(755,800,c),
(705,800,o),
(655,800,o),
(605,800,c)
);
},
{
attr = {
fillColor = (0,255);
};
closed = 1;
nodes = (
(5,25,o),
(5,0,o),
(30,0,c),
(55,0,o),
(80,50,o),
(105,50,c),
(130,50,o),
(253,109,o),
(405,200,c),
(496,250,o),
(582,369,o),
(630,450,c),
(657,496,o),
(708,590,o),
(710,600,c),
(725,650,o),
(709,650,o),
(705,650,c),
(585,648,o),
(480,650,o),
(355,650,c),
(330,650,o),
(309,609,o),
(305,600,c),
(281,556,o),
(5,75,o),
(5,50,c)
);
},
{
attr = {
fillColor = (0,255);
};
closed = 1;
nodes = (
(410,500,o),
(404,502,o),
(505,500,c),
(655,500,o),
(305,175,o),
(205,175,c),
(155,175,o),
(224,312,o),
(275,400,c),
(307,455,o),
(338,500,o),
(355,500,c)
);
}
);
width = 599;
}
);
unicode = 79;
},
{
glyphname = R;
lastChange = "2022-02-03 14:48:09 +0000";
layers = (
{
layerId = m01;
shapes = (
{
attr = {
fillColor = (0,255);
};
closed = 1;
nodes = (
(430,800,o),
(405,800,o),
(405,750,c),
(405,700,o),
(430,700,o),
(430,700,c),
(430,700,o),
(605,700,o),
(655,700,c),
(705,700,o),
(705,800,o),
(680,800,c),
(655,800,o),
(430,800,o),
(430,800,c)
);
},
{
attr = {
fillColor = (0,255);
};
closed = 1;
nodes = (
(230,800,o),
(205,800,o),
(205,750,c),
(205,700,o),
(230,700,o),
(230,700,c),
(230,700,o),
(305,700,o),
(330,700,c),
(355,700,o),
(355,800,o),
(330,800,c),
(305,800,o),
(230,800,o),
(230,800,c)
);
},
{
attr = {
fillColor = (0,255);
};
closed = 1;
nodes = (
(230,650,o),
(205,645,o),
(205,574,c),
(205,502,o),
(5,100,o),
(5,50,c),
(5,25,o),
(5,0,o),
(55,0,c),
(80,0,o),
(161,199,o),
(189,266,c),
(228,352,o),
(320,274,o),
(322,251,c),
(324,229,o),
(255,200,o),
(255,150,c),
(255,100,o),
(305,0,o),
(355,0,c),
(505,0,o),
(505,125,o),
(505,125,c),
(505,125,o),
(355,0,o),
(355,150,c),
(355,200,o),
(408,301,o),
(548,382,c),
(575,398,o),
(576,462,o),
(593,501,c),
(611,542,o),
(655,600,o),
(655,625,c),
(655,650,o),
(631,650,o),
(631,650,c),
(430,650,l),
(430,650,o),
(405,652,o),
(405,627,c),
(405,601,o),
(405,500,o),
(405,500,c),
(480,500,l),
(480,500,o),
(505,500,o),
(505,475,c),
(505,448,o),
(504,412,o),
(491,398,c),
(466,371,o),
(405,350,o),
(355,350,c),
(305,350,o),
(230,350,o),
(230,375,c),
(230,500,o),
(328,500,o),
(328,500,c),
(331,557,o),
(330,600,o),
(330,625,c),
(330,650,o),
(305,650,o),
(305,650,c),
(230,650,l)
);
}
);
width = 521;
}
);
unicode = 82;
},
{
glyphname = S;
lastChange = "2022-02-07 15:38:54 +0000";
layers = (
{
layerId = m01;
shapes = (
{
attr = {
fillColor = (0,255);
};
closed = 1;
nodes = (
(405,800,o),
(355,800,o),
(355,750,c),
(355,700,o),
(405,700,o),
(405,700,c),
(405,700,o),
(805,700,o),
(905,700,c),
(945,700,o),
(1005,800,o),
(955,800,c),
(905,800,o),
(405,800,o),
(405,800,c)
);
},
{
attr = {
fillColor = (0,255);
};
closed = 1;
nodes = (
(770,650,o),
(338,650,o),
(338,650,c),
(338,650,o),
(280,650,o),
(250,600,c),
(191,504,o),
(5,203,o),
(5,150,c),
(4,47,o),
(55,0,o),
(105,0,c),
(205,0,o),
(284,161,o),
(284,161,c),
(284,161,o),
(206,93,o),
(160,118,c),
(69,167,o),
(172,300,o),
(255,300,c),
(305,300,o),
(365,300,o),
(455,300,c),
(505,300,o),
(549,239,o),
(521,198,c),
(484,144,o),
(305,0,o),
(305,0,c),
(305,0,o),
(655,150,o),
(655,300,c),
(655,400,o),
(480,400,o),
(405,400,c),
(304,399,o),
(205,371,o),
(205,371,c),
(205,371,o),
(230,414,o),
(246,434,c),
(263,456,o),
(305,500,o),
(305,500,c),
(705,500,l),
(705,500,o),
(730,500,o),
(730,435,c),
(730,398,o),
(705,350,o),
(705,350,c),
(705,350,o),
(782,391,o),
(809,441,c),
(835,491,o),
(945,650,o),
(855,650,c)
);
}
);
width = 799;
}
);
unicode = 83;
},
{
glyphname = T;
lastChange = "2022-02-02 16:49:38 +0000";
layers = (
{
layerId = m01;
shapes = (
{
attr = {
fillColor = (0,255);
};
closed = 1;
nodes = (
(250,900,o),
(200,900,o),
(200,850,c),
(200,800,o),
(250,800,o),
(250,800,c),
(250,800,o),
(602,797,o),
(700,800,c),
(750,800,o),
(800,900,o),
(750,900,c),
(700,900,o),
(250,900,o),
(250,900,c)
);
},
{
attr = {
fillColor = (0,255);
};
closed = 1;
nodes = (
(180,750,o),
(155,725,o),
(155,700,c),
(155,677,o),
(155,646,o),
(155,630,c),
(156,600,o),
(205,600,o),
(205,600,c),
(305,600,l),
(305,600,o),
(288,546,o),
(269,503,c),
(254,471,o),
(249,466,o),
(250,450,c),
(250,425,o),
(255,400,o),
(305,400,c),
(330,400,o),
(345,451,o),
(365,500,c),
(385,551,o),
(405,600,o),
(405,600,c),
(575,600,l),
(575,600,o),
(423,200,o),
(368,52,c),
(361,33,o),
(355,0,o),
(405,0,c),
(430,0,o),
(520,213,o),
(603,401,c),
(647,503,o),
(683,605,o),
(707,659,c),
(721,688,o),
(730,683,o),
(730,700,c),
(730,750,o),
(705,750,o),
(705,750,c),
(705,750,o),
(355,750,o),
(205,750,c)
);
}
);
width = 621;
}
);
unicode = 84;
},
{
glyphname = Y;
lastChange = "2022-02-03 14:57:44 +0000";
layers = (
{
layerId = m01;
shapes = (
{
attr = {
fillColor = (0,255);
};
closed = 1;
nodes = (
(177,800,o),
(156,798,o),
(156,748,c),
(156,701,o),
(177,701,o),
(177,701,c),
(177,701,o),
(254,698,o),
(330,700,c),
(405,700,o),
(405,800,o),
(380,800,c),
(355,800,o),
(177,800,o),
(177,800,c)
);
},
{
attr = {
fillColor = (0,255);
};
closed = 1;
nodes = (
(555,800,o),
(505,800,o),
(505,750,c),
(505,700,o),
(525,700,o),
(525,700,c),
(525,700,o),
(605,700,o),
(655,700,c),
(705,700,o),
(720,800,o),
(705,800,c),
(680,800,o),
(555,800,o),
(555,800,c)
);
},
{
attr = {
fillColor = (0,255);
};
closed = 1;
nodes = (
(130,650,o),
(105,624,o),
(105,600,c),
(105,573,o),
(105,515,o),
(105,515,c),
(105,515,o),
(105,500,o),
(120,500,c),
(160,500,o),
(149,478,o),
(150,446,c),
(151,401,o),
(127,263,o),
(103,198,c),
(83,144,o),
(5,75,o),
(5,50,c),
(5,25,o),
(30,0,o),
(55,0,c),
(80,0,o),
(164,130,o),
(229,186,c),
(316,260,o),
(453,255,o),
(606,400,c),
(644,436,o),
(661,492,o),
(677,525,c),
(689,549,o),
(705,576,o),
(705,600,c),
(705,620,o),
(705,610,o),
(705,630,c),
(705,650,o),
(680,650,o),
(680,650,c),
(680,650,o),
(480,650,o),
(430,650,c),
(405,650,o),
(405,650,o),
(405,600,c),
(406,570,o),
(405,515,o),
(405,515,c),
(405,515,o),
(405,500,o),
(420,500,c),
(445,500,o),
(475,500,o),
(475,500,c),
(475,500,o),
(471,403,o),
(340,361,c),
(304,349,o),
(284,306,o),
(268,302,c),
(199,285,o),
(283,500,o),
(306,500,c),
(318,500,o),
(319,500,o),
(330,501,c),
(345,501,o),
(345,515,o),
(345,515,c),
(345,515,o),
(345,600,o),
(345,635,c),
(345,650,o),
(330,650,o),
(330,650,c),
(330,650,o),
(205,650,o),
(155,650,c)
);
}
);
width = 561;
}
);
unicode = 89;
},
{
glyphname = a;
lastChange = "2022-02-01 16:52:52 +0000";
layers = (
{
layerId = m01;
shapes = (
{
attr = {
fillColor = (0,255);
};
closed = 1;
nodes = (
(189,434,o),
(159,400,o),
(139,336,c),
(128,300,o),
(122,250,o),
(139,250,c),
(155,250,o),
(205,284,o),
(205,300,c),
(205,317,o),
(172,300,o),
(172,317,c),
(172,320,o),
(183,334,o),
(205,334,c),
(271,335,o),
(272,334,o),
(305,334,c),
(323,334,o),
(339,334,o),
(339,300,c),
(339,282,o),
(303,200,o),
(303,200,c),
(303,200,o),
(205,200,o),
(172,200,c),
(105,200,o),
(5,67,o),
(5,34,c),
(5,17,o),
(22,0,o),
(39,0,c),
(73,0,o),
(205,0,o),
(239,0,c),
(255,0,o),
(274,30,o),
(291,67,c),
(311,110,o),
(371,250,o),
(407,332,c),
(437,399,o),
(456,368,o),
(463,382,c),
(473,400,o),
(472,434,o),
(455,434,c),
(389,434,o),
(272,434,o),
(205,434,c)
);
},
{
attr = {
fillColor = (0,255);
};
closed = 1;
nodes = (
(199,67,o),
(142,67,o),
(125,67,c),
(109,67,o),
(89,67,o),
(89,84,c),
(89,100,o),
(139,167,o),
(205,167,c),
(222,167,o),
(292,167,o),
(292,167,c),
(292,167,o),
(249,67,o),
(232,67,c)
);
},
{
attr = {
fillColor = (0,255);
};
closed = 1;
nodes = (
(238,534,o),
(205,500,o),
(205,484,c),
(205,467,o),
(205,467,o),
(239,467,c),
(323,467,o),
(404,467,o),
(472,467,c),
(489,467,o),
(539,534,o),
(489,534,c),
(422,534,o),
(334,534,o),
(272,534,c)
);
}
);
width = 411;
}
);
unicode = 97;
},
{
glyphname = d;
lastChange = "2022-02-01 16:51:37 +0000";
layers = (
{
layerId = m01;
shapes = (
{
attr = {
fillColor = (0,255);
};
closed = 1;
nodes = (
(389,534,o),
(359,500,o),
(359,484,c),
(359,467,o),
(389,467,o),
(405,467,c),
(439,467,o),
(445,467,o),
(472,467,c),
(499,467,o),
(539,534,o),
(505,534,c),
(472,534,o),
(431,534,o),
(405,534,c)
);
},
{
attr = {
fillColor = (0,255);
};
closed = 1;
nodes = (
(345,434,o),
(326,430,o),
(297,362,c),
(284,334,o),
(295,334,o),
(319,334,c),
(342,334,o),
(352,334,o),
(385,334,c),
(402,334,o),
(405,334,o),
(405,300,c),
(405,277,o),
(372,200,o),
(372,200,c),
(372,200,o),
(205,200,o),
(172,200,c),
(105,200,o),
(5,67,o),
(5,34,c),
(5,17,o),
(22,0,o),
(39,0,c),
(72,0,o),
(272,0,o),
(305,0,c),
(339,0,o),
(360,29,o),
(377,67,c),
(397,110,o),
(486,361,o),
(491,375,c),
(497,394,o),
(499,434,o),
(472,434,c),
(439,434,o),
(395,434,o),
(361,434,c)
);
},
{
attr = {
fillColor = (0,255);
};
closed = 1;
nodes = (
(272,67,o),
(139,67,o),
(122,67,c),
(105,67,o),
(89,67,o),
(89,84,c),
(89,100,o),
(139,167,o),
(205,167,c),
(222,167,o),
(361,167,o),
(361,167,c),
(361,167,o),
(329,67,o),
(305,67,c)
);
}
);
width = 418;
}
);
unicode = 100;
},
{
glyphname = e;
lastChange = "2022-02-01 16:53:51 +0000";
layers = (
{
layerId = m01;
shapes = (
{
attr = {
fillColor = (0,255);
};
closed = 1;
nodes = (
(222,534,o),
(205,500,o),
(205,484,c),
(205,467,o),
(205,467,o),
(238,467,c),
(322,467,o),
(370,467,o),
(438,467,c),
(455,467,o),
(505,534,o),
(455,534,c),
(388,534,o),
(317,534,o),
(255,534,c)
);
},
{
attr = {
fillColor = (0,255);
};
closed = 1;
nodes = (
(172,434,o),
(138,367,o),
(138,334,c),
(138,317,o),
(148,284,o),
(165,284,c),
(198,284,o),
(195,333,o),
(232,334,c),
(296,334,o),
(372,334,o),
(372,334,c),
(372,334,o),
(348,286,o),
(338,268,c),
(329,254,o),
(305,234,o),
(305,234,c),
(305,234,o),
(205,234,o),
(138,234,c),
(122,234,o),
(72,167,o),
(105,167,c),
(136,167,o),
(265,167,o),
(265,167,c),
(265,167,o),
(240,132,o),
(207,110,c),
(186,97,o),
(72,100,o),
(38,100,c),
(22,100,o),
(6,50,o),
(5,34,c),
(5,17,o),
(22,0,o),
(38,0,c),
(72,0,o),
(138,0,o),
(172,0,c),
(188,0,o),
(237,35,o),
(252,52,c),
(302,105,o),
(364,196,o),
(440,318,c),
(457,344,o),
(472,384,o),
(472,401,c),
(472,418,o),
(472,434,o),
(448,434,c),
(382,434,o),
(306,436,o),
(205,434,c)
);
}
);
width = 377;
}
);
unicode = 101;
},
{
glyphname = f;
lastChange = "2022-02-03 12:42:19 +0000";
layers = (
{
layerId = m01;
shapes = (
{
attr = {
fillColor = (0,255);
};
closed = 1;
nodes = (
(339,534,o),
(305,500,o),
(305,484,c),
(305,467,o),
(339,467,o),
(339,467,c),
(339,467,o),
(472,467,o),
(505,467,c),
(522,467,o),
(539,500,o),
(539,517,c),
(539,534,o),
(520,533,o),
(520,533,c),
(339,534,l)
);
},
{
attr = {
fillColor = (0,255);
};
closed = 1;
nodes = (
(189,434,o),
(161,418,o),
(151,400,c),
(120,334,o),
(77,132,o),
(42,67,c),
(34,52,o),
(5,50,o),
(5,34,c),
(5,17,o),
(22,0,o),
(39,0,c),
(55,0,o),
(97,28,o),
(106,66,c),
(127,150,o),
(175,270,o),
(194,319,c),
(199,332,o),
(200,334,o),
(205,334,c),
(228,335,o),
(272,334,o),
(272,334,c),
(272,334,o),
(305,234,o),
(322,234,c),
(339,234,o),
(370,333,o),
(370,333,c),
(370,333,o),
(409,333,o),
(439,334,c),
(455,334,o),
(471,371,o),
(472,400,c),
(472,434,o),
(439,434,o),
(439,434,c),
(439,434,o),
(272,434,o),
(205,434,c)
);
}
);
width = 439;
}
);
unicode = 102;
},
{
glyphname = h;
lastChange = "2022-02-01 16:51:27 +0000";
layers = (
{
layerId = m01;
shapes = (
{
attr = {
fillColor = (0,255);
};
closed = 1;
nodes = (
(239,534,o),
(205,506,o),
(205,484,c),
(205,467,o),
(235,467,o),
(252,467,c),
(285,467,o),
(285,467,o),
(319,467,c),
(352,467,o),
(389,534,o),
(355,534,c),
(322,534,o),
(289,534,o),
(255,534,c)
);
},
{
attr = {
fillColor = (0,255);
};
closed = 1;
nodes = (
(389,434,o),
(339,367,o),
(339,350,c),
(339,334,o),
(339,334,o),
(355,334,c),
(371,334,o),
(379,334,o),
(405,334,c),
(422,334,o),
(450,385,o),
(458,402,c),
(463,412,o),
(469,434,o),
(452,434,c),
(441,434,o),
(435,434,o),
(405,434,c)
);
},
{
attr = {
fillColor = (0,255);
};
closed = 1;
nodes = (
(189,434,o),
(153,365,o),
(153,348,c),
(153,348,o),
(143,273,o),
(119,207,c),
(68,72,o),
(5,34,o),
(5,17,c),
(5,0,o),
(12,0,o),
(22,0,c),
(32,0,o),
(68,37,o),
(99,74,c),
(134,117,o),
(159,200,o),
(207,200,c),
(272,202,o),
(337,198,o),
(312,164,c),
(291,134,o),
(230,76,o),
(222,67,c),
(204,47,o),
(155,67,o),
(139,47,c),
(112,14,o),
(99,0,o),
(112,0,c),
(137,0,o),
(205,0,o),
(239,0,c),
(272,0,o),
(322,42,o),
(322,67,c),
(322,86,o),
(291,84,o),
(291,90,c),
(292,132,o),
(389,166,o),
(389,220,c),
(388,265,o),
(181,236,o),
(181,236,c),
(181,236,o),
(212,334,o),
(229,334,c),
(245,334,o),
(245,334,o),
(272,334,c),
(293,334,o),
(325,384,o),
(332,400,c),
(337,410,o),
(342,434,o),
(325,434,c),
(309,434,o),
(239,434,o),
(205,434,c)
);
}
);
width = 363;
}
);
unicode = 104;
},
{
glyphname = i;
lastChange = "2022-02-03 12:49:52 +0000";
layers = (
{
layerId = m01;
shapes = (
{
attr = {
fillColor = (0,255);
};
closed = 1;
nodes = (
(172,434,o),
(155,384,o),
(155,367,c),
(155,350,o),
(165,317,o),
(172,317,c),
(179,317,o),
(178,346,o),
(187,328,c),
(205,291,o),
(109,134,o),
(83,88,c),
(73,68,o),
(5,67,o),
(5,50,c),
(5,34,o),
(5,0,o),
(22,0,c),
(55,0,o),
(105,0,o),
(139,0,c),
(172,0,o),
(205,50,o),
(205,67,c),
(205,84,o),
(128,68,o),
(137,89,c),
(167,150,o),
(218,268,o),
(241,320,c),
(247,334,o),
(255,334,o),
(255,334,c),
(255,334,o),
(339,334,o),
(389,334,c),
(405,334,o),
(439,400,o),
(439,417,c),
(439,434,o),
(427,434,o),
(427,434,c),
(427,434,o),
(272,435,o),
(205,434,c)
);
},
{
attr = {
fillColor = (0,255);
};
closed = 1;
nodes = (
(222,534,o),
(205,500,o),
(205,484,c),
(205,467,o),
(222,467,o),
(222,467,c),
(222,467,o),
(272,467,o),
(305,467,c),
(322,467,o),
(339,500,o),
(339,517,c),
(339,534,o),
(322,534,o),
(322,534,c),
(322,534,o),
(272,534,o),
(239,534,c)
);
}
);
width = 339;
}
);
unicode = 105;
},
{
glyphname = l;
lastChange = "2022-02-01 16:50:01 +0000";
layers = (
{
layerId = m01;
shapes = (
{
attr = {
fillColor = (0,255);
};
closed = 1;
nodes = (
(238,534,o),
(219,495,o),
(205,467,c),
(142,335,o),
(4,35,o),
(5,17,c),
(5,0,o),
(5,0,o),
(38,0,c),
(55,0,o),
(71,67,o),
(105,67,c),
(205,67,o),
(205,0,o),
(221,0,c),
(238,0,o),
(271,34,o),
(271,67,c),
(271,100,o),
(238,134,o),
(171,134,c),
(139,134,o),
(105,134,o),
(105,134,c),
(205,334,l),
(205,334,o),
(305,334,o),
(371,334,c),
(405,334,o),
(438,367,o),
(438,400,c),
(438,417,o),
(438,434,o),
(405,434,c),
(339,434,o),
(238,432,o),
(238,432,c),
(238,432,o),
(255,467,o),
(271,467,c),
(305,467,o),
(371,467,o),
(405,467,c),
(438,467,o),
(471,500,o),
(471,517,c),
(471,534,o),
(471,534,o),
(455,534,c),
(401,534,o),
(338,534,o),
(271,534,c)
);
},
{
attr = {
fillColor = (0,255);
};
closed = 1;
nodes = (
(255,234,o),
(171,167,o),
(271,167,c),
(303,167,o),
(321,184,o),
(321,200,c),
(321,234,o),
(321,234,o),
(271,234,c)
);
}
);
width = 371;
}
);
unicode = 108;
},
{
glyphname = m;
lastChange = "2022-02-01 16:54:54 +0000";
layers = (
{
layerId = m01;
shapes = (
{
attr = {
fillColor = (0,255);
};
closed = 1;
nodes = (
(238,534,o),
(204,533,o),
(184,500,c),
(164,469,o),
(198,467,o),
(198,467,c),
(198,467,o),
(605,467,o),
(672,467,c),
(705,467,o),
(738,534,o),
(705,534,c),
(672,534,o),
(238,534,o),
(238,534,c)
);
},
{
attr = {
fillColor = (0,255);
};
closed = 1;
nodes = (
(134,399,o),
(83,261,o),
(48,163,c),
(38,134,o),
(5,84,o),
(5,67,c),
(5,34,o),
(38,0,o),
(72,0,c),
(205,0,o),
(310,112,o),
(310,112,c),
(310,112,o),
(338,0,o),
(405,0,c),
(505,0,o),
(538,54,o),
(538,54,c),
(538,54,o),
(622,0,o),
(672,0,c),
(722,0,o),
(805,167,o),
(805,167,c),
(805,167,o),
(705,67,o),
(688,67,c),
(655,67,o),
(588,134,o),
(572,200,c),
(555,267,o),
(561,296,o),
(555,317,c),
(550,334,o),
(596,324,o),
(605,334,c),
(625,354,o),
(640,377,o),
(648,394,c),
(665,427,o),
(622,434,o),
(605,434,c),
(545,434,o),
(205,434,o),
(159,433,c),
(150,433,o),
(140,416,o),
(139,412,c)
);
},
{
attr = {
fillColor = (0,255);
};
closed = 1;
nodes = (
(422,334,o),
(449,334,o),
(472,334,c),
(538,334,o),
(537,78,o),
(537,78,c),
(537,78,o),
(518,67,o),
(504,67,c),
(473,67,o),
(412,96,o),
(395,132,c),
(366,200,o),
(372,334,o),
(405,334,c)
);
},
{
attr = {
fillColor = (0,255);
};
closed = 1;
nodes = (
(305,334,o),
(304,294,o),
(305,267,c),
(300,234,o),
(306,133,o),
(306,133,c),
(306,133,o),
(205,67,o),
(172,67,c),
(138,67,o),
(105,67,o),
(105,100,c),
(105,131,o),
(155,334,o),
(188,334,c),
(222,334,o),
(238,334,o),
(272,334,c)
);
}
);
width = 730;
}
);
unicode = 109;
},
{
glyphname = n;
lastChange = "2022-02-03 14:39:21 +0000";
layers = (
{
layerId = m01;
shapes = (
{
attr = {
fillColor = (0,255);
};
closed = 1;
nodes = (
(238,534,o),
(205,534,o),
(205,500,c),
(205,467,o),
(238,467,o),
(238,467,c),
(238,467,o),
(472,467,o),
(538,467,c),
(572,467,o),
(605,534,o),
(572,534,c),
(538,534,o),
(238,534,o),
(238,534,c)
);
},
{
attr = {
fillColor = (0,255);
};
closed = 1;
nodes = (
(22,134,o),
(5,100,o),
(5,84,c),
(5,67,o),
(38,67,o),
(38,67,c),
(205,67,l),
(205,67,o),
(238,67,o),
(238,84,c),
(238,100,o),
(222,134,o),
(205,134,c),
(186,133,o),
(187,134,o),
(187,134,c),
(273,334,l),
(273,334,o),
(341,336,o),
(404,278,c),
(446,239,o),
(335,176,o),
(318,134,c),
(300,90,o),
(305,0,o),
(338,0,c),
(472,0,o),
(472,67,o),
(472,67,c),
(472,67,o),
(372,34,o),
(372,100,c),
(373,166,o),
(504,217,o),
(527,252,c),
(537,267,o),
(505,284,o),
(505,300,c),
(505,334,o),
(572,317,o),
(572,334,c),
(572,367,o),
(605,367,o),
(605,400,c),
(605,434,o),
(586,431,o),
(586,431,c),
(586,431,o),
(288,434,o),
(222,434,c),
(205,434,o),
(172,384,o),
(172,367,c),
(172,350,o),
(188,334,o),
(205,334,c),
(227,334,o),
(227,334,o),
(227,334,c),
(138,134,l),
(138,134,o),
(72,134,o),
(38,134,c)
);
}
);
width = 505;
}
);
unicode = 110;
},
{
glyphname = o;
lastChange = "2022-02-01 17:52:30 +0000";
layers = (
{
layerId = m01;
shapes = (
{
attr = {
fillColor = (0,255);
};
closed = 1;
nodes = (
(389,534,o),
(355,500,o),
(355,484,c),
(355,467,o),
(390,468,o),
(405,467,c),
(439,467,o),
(439,467,o),
(472,467,c),
(499,468,o),
(539,534,o),
(505,534,c),
(472,534,o),
(439,534,o),
(405,534,c)
);
},
{
attr = {
fillColor = (0,255);
};
closed = 1;
nodes = (
(5,17,o),
(5,0,o),
(22,0,c),
(39,0,o),
(55,34,o),
(72,34,c),
(89,34,o),
(171,73,o),
(272,134,c),
(333,167,o),
(390,246,o),
(422,300,c),
(440,331,o),
(474,394,o),
(475,400,c),
(485,434,o),
(475,434,o),
(472,434,c),
(392,432,o),
(322,434,o),
(239,434,c),
(222,434,o),
(208,406,o),
(205,400,c),
(189,371,o),
(5,50,o),
(5,34,c)
);
},
{
attr = {
fillColor = (0,255);
};
closed = 1;
nodes = (
(275,334,o),
(271,335,o),
(339,334,c),
(439,334,o),
(205,117,o),
(139,117,c),
(105,117,o),
(151,208,o),
(185,267,c),
(207,304,o),
(227,334,o),
(239,334,c)
);
}
);
width = 418;
}
);
unicode = 111;
},
{
glyphname = r;
lastChange = "2022-02-03 14:50:01 +0000";
layers = (
{
layerId = m01;
shapes = (
{
attr = {
fillColor = (0,255);
};
closed = 1;
nodes = (
(289,534,o),
(272,534,o),
(272,500,c),
(272,467,o),
(289,467,o),
(289,467,c),
(289,467,o),
(405,467,o),
(439,467,c),
(472,467,o),
(472,534,o),
(455,534,c),
(439,534,o),
(289,534,o),
(289,534,c)
);
},
{
attr = {
fillColor = (0,255);
};
closed = 1;
nodes = (
(155,534,o),
(139,534,o),
(139,500,c),
(139,467,o),
(155,467,o),
(155,467,c),
(155,467,o),
(205,467,o),
(222,467,c),
(239,467,o),
(239,534,o),
(222,534,c),
(205,534,o),
(155,534,o),
(155,534,c)
);
},
{
attr = {
fillColor = (0,255);
};
closed = 1;
nodes = (
(155,434,o),
(139,430,o),
(139,383,c),
(139,335,o),
(5,67,o),
(5,34,c),
(5,17,o),
(5,0,o),
(39,0,c),
(55,0,o),
(109,133,o),
(128,178,c),
(154,235,o),
(215,183,o),
(217,168,c),
(218,153,o),
(172,134,o),
(172,100,c),
(172,67,o),
(205,0,o),
(239,0,c),
(339,0,o),
(339,84,o),
(339,84,c),
(339,84,o),
(239,0,o),
(239,100,c),
(239,134,o),
(274,201,o),
(367,255,c),
(385,266,o),
(386,308,o),
(397,334,c),
(409,362,o),
(439,400,o),
(439,417,c),
(439,434,o),
(423,434,o),
(423,434,c),
(289,434,l),
(289,434,o),
(272,435,o),
(272,418,c),
(272,401,o),
(272,334,o),
(272,334,c),
(322,334,l),
(322,334,o),
(339,334,o),
(339,317,c),
(339,299,o),
(338,275,o),
(329,266,c),
(313,248,o),
(272,234,o),
(239,234,c),
(205,234,o),
(155,234,o),
(155,250,c),
(155,334,o),
(221,334,o),
(221,334,c),
(223,372,o),
(222,400,o),
(222,417,c),
(222,434,o),
(205,434,o),
(205,434,c),
(155,434,l)
);
}
);
width = 366;
}
);
unicode = 114;
},
{
glyphname = s;
lastChange = "2022-02-07 15:39:43 +0000";
layers = (
{
layerId = m01;
shapes = (
{
attr = {
fillColor = (0,255);
};
closed = 1;
nodes = (
(272,534,o),
(239,534,o),
(239,500,c),
(239,467,o),
(272,467,o),
(272,467,c),
(272,467,o),
(539,467,o),
(605,467,c),
(632,467,o),
(672,534,o),
(639,534,c),
(605,534,o),
(272,534,o),
(272,534,c)
);
},
{
attr = {
fillColor = (0,255);
};
closed = 1;
nodes = (
(515,434,o),
(227,434,o),
(227,434,c),
(227,434,o),
(189,434,o),
(169,400,c),
(129,336,o),
(5,136,o),
(5,100,c),
(5,32,o),
(39,0,o),
(72,0,c),
(139,0,o),
(191,108,o),
(191,108,c),
(191,108,o),
(139,62,o),
(109,79,c),
(48,112,o),
(117,200,o),
(172,200,c),
(205,200,o),
(245,200,o),
(305,200,c),
(339,200,o),
(368,160,o),
(349,132,c),
(325,96,o),
(205,0,o),
(205,0,c),
(205,0,o),
(439,100,o),
(439,200,c),
(439,267,o),
(322,267,o),
(272,267,c),
(205,266,o),
(139,248,o),
(139,248,c),
(139,248,o),
(155,276,o),
(166,290,c),
(177,304,o),
(205,334,o),
(205,334,c),
(472,334,l),
(472,334,o),
(489,334,o),
(489,290,c),
(489,266,o),
(472,234,o),
(472,234,c),
(472,234,o),
(523,261,o),
(541,294,c),
(559,328,o),
(632,434,o),
(572,434,c)
);
}
);
width = 551;
}
);
unicode = 115;
},
{
glyphname = t;
lastChange = "2022-02-02 16:50:42 +0000";
layers = (
{
layerId = m01;
shapes = (
{
attr = {
fillColor = (0,255);
};
closed = 1;
nodes = (
(168,597,o),
(135,597,o),
(135,564,c),
(135,530,o),
(168,530,o),
(168,530,c),
(168,530,o),
(403,528,o),
(468,530,c),
(501,530,o),
(535,597,o),
(501,597,c),
(468,597,o),
(168,597,o),
(168,597,c)
);
},
{
attr = {
fillColor = (0,255);
};
closed = 1;
nodes = (
(121,497,o),
(105,480,o),
(105,464,c),
(105,448,o),
(105,428,o),
(105,417,c),
(105,397,o),
(138,397,o),
(138,397,c),
(205,397,l),
(205,397,o),
(193,361,o),
(181,332,c),
(171,311,o),
(167,308,o),
(168,297,c),
(168,280,o),
(171,264,o),
(205,264,c),
(221,264,o),
(231,298,o),
(245,330,c),
(258,364,o),
(271,397,o),
(271,397,c),
(385,397,l),
(385,397,o),
(283,130,o),
(247,32,c),
(242,19,o),
(238,-3,o),
(271,-3,c),
(288,-3,o),
(348,139,o),
(403,264,c),
(433,332,o),
(457,400,o),
(473,436,c),
(482,456,o),
(488,452,o),
(488,464,c),
(488,497,o),
(471,497,o),
(471,497,c),
(471,497,o),
(238,497,o),
(138,497,c)
);
}
);
width = 415;
}
);
unicode = 116;
},
{
glyphname = y;
lastChange = "2022-02-03 14:58:33 +0000";
layers = (
{
layerId = m01;
shapes = (
{
attr = {
fillColor = (0,255);
};
closed = 1;
nodes = (
(119,534,o),
(105,532,o),
(105,499,c),
(105,468,o),
(119,468,o),
(119,468,c),
(119,468,o),
(171,466,o),
(221,467,c),
(271,467,o),
(271,534,o),
(255,534,c),
(238,534,o),
(119,534,o),
(119,534,c)
);
},
{
attr = {
fillColor = (0,255);
};
closed = 1;
nodes = (
(371,534,o),
(338,534,o),
(338,500,c),
(338,467,o),
(351,467,o),
(351,467,c),
(351,467,o),
(405,467,o),
(438,467,c),
(471,467,o),
(481,534,o),
(471,534,c),
(455,534,o),
(371,534,o),
(371,534,c)
);
},
{
attr = {
fillColor = (0,255);
};
closed = 1;
nodes = (
(88,434,o),
(71,416,o),
(71,400,c),
(71,382,o),
(71,344,o),
(71,344,c),
(71,344,o),
(71,334,o),
(81,334,c),
(108,334,o),
(101,319,o),
(101,298,c),
(102,268,o),
(86,176,o),
(70,132,c),
(57,96,o),
(5,50,o),
(5,34,c),
(5,17,o),
(21,0,o),
(38,0,c),
(55,0,o),
(111,87,o),
(154,124,c),
(212,174,o),
(303,170,o),
(405,267,c),
(431,291,o),
(442,328,o),
(453,350,c),
(461,366,o),
(471,384,o),
(471,400,c),
(471,414,o),
(471,407,o),
(471,420,c),
(471,434,o),
(455,434,o),
(455,434,c),
(455,434,o),
(321,434,o),
(288,434,c),
(271,434,o),
(271,434,o),
(271,400,c),
(272,380,o),
(271,344,o),
(271,344,c),
(271,344,o),
(271,334,o),
(281,334,c),
(298,334,o),
(318,334,o),
(318,334,c),
(318,334,o),
(315,269,o),
(228,241,c),
(204,233,o),
(191,204,o),
(180,202,c),
(134,190,o),
(190,334,o),
(205,334,c),
(213,334,o),
(214,334,o),
(221,334,c),
(231,334,o),
(231,344,o),
(231,344,c),
(231,344,o),
(231,400,o),
(231,424,c),
(231,434,o),
(221,434,o),
(221,434,c),
(221,434,o),
(138,434,o),
(105,434,c)
);
}
);
width = 375;
}
);
unicode = 121;
},
